PathFileType	4	(X/Y/Z)	Run_400 02
DataRate	CameraRate	NumFrames	NumMarkers	Units	OrigDataRate	OrigDataStartFrame	OrigNumFrames
100	100	6	42	mm	100	71	128
Frame#	Time	LASI			RASI			LPSI			RPSI			RTH1			RTH3			LTH1			LTH2			LTH3			RTB1			RTB2			LTB1			LTB2			RCAL			RTOE			LCAL			LTOE			LACR			RACR			CLAV			C7			RUA1			RUA2			RUA3			RLEL			RMEL			LUA1			LUA2			LUA3			LLEL			LMEL			RFAsuperior			RFAradius			RFAulna			LFAsuperior			LFAradius			LFAulna			RTH2			RTB3			RMT5			LMT5			LTB3		
		X1	Y1	Z1	X2	Y2	Z2	X3	Y3	Z3	X4	Y4	Z4	X5	Y5	Z5	X6	Y6	Z6	X7	Y7	Z7	X8	Y8	Z8	X9	Y9	Z9	X10	Y10	Z10	X11	Y11	Z11	X12	Y12	Z12	X13	Y13	Z13	X14	Y14	Z14	X15	Y15	Z15	X16	Y16	Z16	X17	Y17	Z17	X18	Y18	Z18	X19	Y19	Z19	X20	Y20	Z20	X21	Y21	Z21	X22	Y22	Z22	X23	Y23	Z23	X24	Y24	Z24	X25	Y25	Z25	X26	Y26	Z26	X27	Y27	Z27	X28	Y28	Z28	X29	Y29	Z29	X30	Y30	Z30	X31	Y31	Z31	X32	Y32	Z32	X33	Y33	Z33	X34	Y34	Z34	X35	Y35	Z35	X36	Y36	Z36	X37	Y37	Z37	X38	Y38	Z38	X39	Y39	Z39	X40	Y40	Z40	X41	Y41	Z41	X42	Y42	Z42	

71	  0.710000	769.067996	1003.659012	-461.698818	776.815360	1035.825253	-212.815274	596.866375	1100.159760	-375.352554	595.467998	1101.650235	-291.347793	764.040134	921.585321	-145.687564	885.439618	720.694964	-171.690534	667.442106	896.414134	-512.741701	694.689489	766.626293	-491.034939	567.609846	664.847784	-471.359855	905.792654	508.625527	-238.548283	800.933067	468.669952	-187.667930	525.266607	433.962178	-404.764823	426.377090	400.662987	-458.937978	564.215029	365.967854	-266.434728	737.975417	209.989856	-270.074913	221.599315	216.803833	-343.437506	388.756765	 68.492731	-358.019138	798.490222	1535.671941	-507.814323	719.439668	1548.397158	-178.347277	825.037868	1502.454289	-301.811324	697.561627	1573.493143	-371.346973	624.209112	1476.286708	-101.304596	541.147194	1422.141735	-139.015799	549.643505	1391.671594	-64.398255	499.410482	1311.399250	-30.774482	471.608841	1296.569497	-107.507065	793.403346	1434.987647	-610.140814	736.149483	1349.514606	-624.248631	801.939869	1326.509626	-662.526185	824.693553	1245.921111	-698.123798	765.898250	1199.878983	-668.163855	530.615736	1235.280575	-22.233937	676.891054	1099.833810	-71.519103	616.646029	1065.910815	-53.597211	909.073667	1220.348990	-607.376236	953.438208	1258.602247	-462.105004	965.512982	1193.253862	-477.504143	887.378981	841.898380	-163.496905	751.321739	379.831103	-248.436118	694.931520	201.555845	-185.471673	334.114335	 55.685037	-431.686164	404.654335	268.007257	-386.891261	
72	  0.720000	770.940899	1010.043933	-461.655929	777.924810	1043.253485	-213.883576	600.125776	1107.935768	-376.820219	597.663106	1109.256240	-292.225381	765.614529	931.957155	-146.536080	884.994908	728.351154	-173.950711	666.101779	903.926866	-513.501761	687.727905	772.785083	-492.290996	556.795535	676.260212	-472.236146	919.361315	510.906920	-240.101680	819.596458	460.029429	-188.990545	508.731753	445.998724	-407.473526	409.577674	414.941471	-461.730055	594.775914	332.809455	-266.537779	783.828031	196.095930	-273.418537	208.069598	241.309217	-348.419269	358.158126	 72.472433	-361.339174	800.530116	1543.785699	-503.961994	717.896321	1556.349806	-178.283150	824.370011	1510.400080	-299.720596	698.603629	1580.553232	-370.759533	620.769827	1487.034504	-103.118429	537.886015	1435.449152	-141.216395	544.570344	1404.445023	-66.096517	492.015289	1324.703398	-33.418863	465.617663	1310.241178	-111.174325	798.164944	1443.703344	-606.905739	741.611580	1358.131340	-622.534968	808.296606	1335.449274	-659.831456	832.423587	1254.670456	-694.776479	774.367080	1207.776521	-665.049371	522.075201	1248.365251	-24.096936	669.214379	1112.153987	-70.242807	608.392858	1078.492378	-54.175673	915.093812	1234.661260	-601.315740	954.656983	1279.199493	-456.417151	969.032011	1213.591818	-469.264014	887.390929	847.931107	-165.011915	779.506793	366.482950	-249.743123	742.970814	181.855328	-189.073074	299.912085	 63.429542	-432.271249	387.126709	280.992251	-392.112120	
73	  0.730000	772.685130	1015.442359	-461.104335	778.966166	1048.874596	-215.434956	603.055251	1115.384518	-378.289887	599.910813	1116.571732	-293.455978	765.767782	939.747744	-147.404112	882.428861	733.568291	-176.422389	665.577185	910.849097	-514.472273	683.222573	778.826599	-493.386711	549.690529	685.921109	-473.517406	931.167471	511.952758	-241.726981	837.640807	450.387180	-190.520414	495.709074	456.645618	-409.482386	396.381327	428.192233	-464.178336	627.570086	299.911184	-267.641031	829.612533	183.785843	-277.017749	194.475785	266.693697	-352.125595	328.899049	 81.020485	-365.420338	802.255300	1551.088418	-500.229644	716.942577	1563.262704	-178.120314	823.925855	1517.223138	-297.835692	699.671086	1586.639381	-369.990760	618.067162	1496.953844	-104.351971	535.512217	1447.681276	-143.169576	540.227486	1416.040612	-67.758149	485.433023	1336.813250	-36.021228	460.304694	1322.830497	-114.609722	802.309530	1451.828780	-603.695503	746.127720	1366.088382	-621.104259	813.619277	1343.809120	-657.587475	839.101330	1262.982031	-691.870407	781.654687	1215.176990	-662.365661	514.247327	1260.217271	-25.995949	662.373692	1123.439750	-69.143734	601.129420	1090.093627	-55.125607	919.636634	1247.986235	-595.840841	954.704794	1297.928773	-451.688123	970.934864	1232.182861	-462.152550	886.099870	851.953951	-166.205696	807.468460	353.182900	-251.345198	791.138687	164.700386	-192.399309	266.580160	 75.945127	-432.631827	370.086913	294.468950	-395.505151	
74	  0.740000	774.272591	1019.885558	-460.174818	779.693478	1053.302386	-216.535712	605.417858	1122.154871	-379.684916	602.321810	1123.459995	-295.219202	764.327526	944.392239	-148.023488	878.313251	736.294591	-178.849113	666.027410	916.907323	-515.219519	681.607219	784.364714	-493.887207	546.600776	693.344658	-475.264364	941.100434	511.561297	-243.012343	854.805981	439.772422	-192.008528	485.417408	465.598336	-411.029590	385.636896	440.851761	-466.263966	662.287969	267.838997	-270.207929	875.012105	173.107611	-280.423565	178.723912	292.594666	-354.227866	299.787405	 95.123535	-368.465372	803.811623	1557.501490	-496.932957	716.456733	1568.972728	-177.739046	823.883297	1522.802373	-296.076412	700.693317	1591.656161	-369.015204	616.006510	1505.733708	-105.000270	533.963834	1458.187351	-145.015157	536.500844	1426.100486	-69.353635	479.555857	1347.415234	-38.488404	455.625590	1334.014653	-117.655855	805.907031	1459.206501	-600.687213	749.897445	1373.283631	-619.826225	817.999035	1351.356802	-655.621131	844.613178	1270.384538	-689.268201	787.605721	1221.855517	-660.042549	507.305808	1270.670922	-27.888505	656.417605	1133.449678	-68.166268	594.765572	1100.345355	-56.375244	922.723203	1259.915719	-591.055661	953.793807	1314.262776	-447.845611	971.355020	1248.660610	-455.398278	883.895030	854.883382	-166.713597	835.107426	340.098838	-253.239298	838.715669	149.931180	-195.469703	234.361601	 93.619303	-432.467163	352.749001	308.747582	-397.378841	
75	  0.750000	775.698038	1023.876260	-459.034371	779.810049	1056.932280	-216.380089	607.339495	1127.949148	-380.930139	604.524036	1129.491159	-297.059122	761.649386	946.009197	-148.208774	873.264217	736.508483	-180.804873	667.553618	921.955317	-515.485710	682.562172	789.019117	-493.594188	547.058179	698.503190	-477.388756	948.864678	509.551673	-243.701011	870.902038	428.254927	-193.301429	477.106609	473.036234	-412.518604	376.453829	453.397838	-467.987284	698.450034	237.353270	-274.162658	919.479879	164.187776	-283.467649	160.919540	319.291315	-355.325006	270.303741	114.262696	-368.702739	805.216218	1562.906426	-494.049319	716.274753	1573.425135	-177.013502	824.226037	1527.138602	-294.324676	701.656344	1595.714677	-367.799336	614.566666	1513.046955	-105.138374	533.029099	1466.559219	-146.704150	533.258133	1434.392541	-70.817836	474.401540	1356.286796	-40.742636	451.610848	1343.472640	-120.284036	808.963269	1465.636106	-597.910897	753.048194	1379.580697	-618.462035	821.452632	1357.854799	-653.772512	848.803923	1276.597964	-686.928251	792.101016	1227.663464	-658.017955	501.398322	1279.512251	-29.707884	651.457397	1141.950958	-67.255534	589.308038	1108.893429	-57.843455	924.523223	1270.013096	-587.067894	952.077174	1327.636411	-444.631157	970.446782	1262.504876	-448.239966	881.391452	856.625089	-166.835045	862.174404	327.496268	-255.478084	885.212865	136.846910	-199.035024	203.871995	115.772791	-431.470286	335.295616	324.094266	-398.164764	
76	  0.760000	776.942943	1027.736594	-457.788451	779.201761	1059.700605	-214.932328	609.060593	1132.538305	-381.876690	606.066597	1134.111895	-298.292240	758.674583	945.334172	-148.191350	867.427021	734.156942	-181.930116	670.095549	925.927626	-515.344845	685.288330	792.605496	-492.616454	549.954412	701.748374	-479.606551	953.994089	505.895137	-243.903947	885.562279	416.134867	-194.476324	470.424779	479.337633	-414.128176	368.730949	465.908568	-469.396010	735.260307	209.189829	-278.835155	962.158087	157.498896	-286.322385	143.203972	347.475054	-356.407198	240.598628	136.814361	-365.586520	806.361268	1567.215237	-491.375503	716.239238	1576.673551	-175.870201	824.742550	1530.302059	-292.533359	702.605623	1599.032402	-366.316217	613.601369	1518.648265	-104.838719	532.459575	1472.555652	-148.108605	530.433619	1440.812032	-72.054639	470.075928	1363.277382	-42.719901	448.322368	1350.887943	-122.543079	811.353338	1470.878699	-595.384661	755.437873	1384.767016	-616.885970	823.860700	1363.115383	-651.973077	851.529157	1281.567654	-684.882076	794.982173	1232.537135	-656.205809	496.609386	1286.487044	-31.359109	647.505539	1148.656955	-66.469931	584.857181	1115.514407	-59.340993	925.280718	1277.808618	-583.893322	949.765935	1337.457290	-441.736956	968.677170	1272.946750	-441.194060	878.843407	856.401745	-166.871698	888.056452	315.677712	-257.950314	930.187449	125.241536	-203.603634	175.321898	141.109909	-429.375739	318.606881	340.530104	-398.207991	
